<!-- <svg xmlns="http://www.w3.org/2000/svg" viewBox="0 0 512 600" width="140" height="160">
  <path
    d="M256 0C167.6 0 96 71.6 96 160c0 27.2 8.4 52.4 22.6 73.2 38.6 56.4 122.2 210 128.2 220 3.2 5 7.8 7 12.4 7s9.2-2 12.4-7c6-10 89.6-163.6 128.2-220 14.2-20.8 22.6-46 22.6-73.2 0-88.4-71.6-160-160-160z"
    fill="#D32F2F" fill-opacity="1"
    stroke="#000" stroke-width="6"
  />
  <circle cx="256" cy="160" r="110" fill="#FFF3E0" stroke="#FF6F00" stroke-width="5"/>

  <g transform="translate(160, 68) scale(3.3)" fill="#FF9800" stroke="#E65100" stroke-width="1.5" filter="url(#glow)">
    <circle cx="28" cy="28" r="26" fill="#FFE0B2" stroke="#FF9800" stroke-width="2.5"/>
    <line x1="28" y1="2" x2="28" y2="54" stroke="#FF9800" stroke-width="1.7"/>
    <line x1="14" y1="4" x2="14" y2="52" stroke="#FF9800" stroke-width="1.2"/>
    <line x1="42" y1="4" x2="42" y2="52" stroke="#FF9800" stroke-width="1.2"/>
    <line x1="4" y1="14" x2="52" y2="14" stroke="#FF9800" stroke-width="1.7"/>
    <line x1="4" y1="28" x2="52" y2="28" stroke="#FF9800" stroke-width="1.2"/>
    <line x1="4" y1="42" x2="52" y2="42" stroke="#FF9800" stroke-width="1.2"/>

    <rect x="38" y="38" width="16" height="20" rx="2" ry="2" fill="#FFF3E0" stroke="#E65100" stroke-width="1.2"/>
    <line x1="41" y1="44" x2="52" y2="44" stroke="#E65100" stroke-width="0.8"/>
    <line x1="41" y1="50" x2="53" y2="50" stroke="#E65100" stroke-width="0.8"/>
    <line x1="41" y1="56" x2="50" y2="56" stroke="#E65100" stroke-width="0.8"/>
  </g>

  <defs>
    <filter id="glow" x="-50%" y="-50%" width="200%" height="200%">
      <feDropShadow dx="0" dy="0" stdDeviation="3" flood-color="#FF9800" flood-opacity="0.6"/>
    </filter>
  </defs>
</svg> -->


<svg xmlns="http://www.w3.org/2000/svg" viewBox="0 -65 512 600" width="160" height="160">
  <!-- Marker shape -->
  <path
    d="M256 0C167.6 0 96 71.6 96 160c0 27.2 8.4 52.4 22.6 73.2 38.6 56.4 122.2 210 128.2 220 3.2 5 7.8 7 12.4 7s9.2-2 12.4-7c6-10 89.6-163.6 128.2-220 14.2-20.8 22.6-46 22.6-73.2 0-88.4-71.6-160-160-160z"
    fill="#EF5350"
    fill-opacity="1"
    stroke="#000000"
    stroke-width="15"
  />
  <circle cx="256" cy="160" r="90" stroke="#666666" stroke-width="5" />
</svg>



